<svg width="71" height="45" viewBox="0 0 71 45" fill="none" xmlns="http://www.w3.org/2000/svg">
<ellipse cx="34.7386" cy="17.4066" rx="29.7758" ry="12.4066" stroke="#BBC40F" stroke-width="9.92528"/>
<path d="M5.34463 36.401C4.80695 35.825 4.46928 35.091 4.38172 34.308L3.25928 25.2626C3.24179 25.1173 3.25882 24.9699 3.30899 24.8325C3.35916 24.695 3.44105 24.5712 3.54801 24.4714C3.65497 24.3715 3.78399 24.2982 3.92459 24.2576C4.06518 24.2169 4.21338 24.21 4.35715 24.2373L15.1748 26.2771C15.32 26.3045 15.4567 26.366 15.5734 26.4566C15.6901 26.5473 15.7835 26.6644 15.846 26.7983C15.9085 26.9323 15.9381 27.0791 15.9325 27.2268C15.9269 27.3745 15.8862 27.5187 15.8138 27.6475L11.3238 35.6601C10.9498 36.3519 10.363 36.9048 9.65033 37.2372C8.93763 37.5695 8.13687 37.6636 7.36655 37.5054C6.59136 37.3643 5.88231 36.977 5.34463 36.401Z" fill="#BBC40F"/>
<path d="M37.7003 43.2931C38.3369 42.8213 38.8056 42.1579 39.0375 41.4002L42.0197 32.2092C42.0649 32.0695 42.0763 31.9211 42.0531 31.7762C42.03 31.6312 41.9728 31.4938 41.8864 31.3752C41.8 31.2565 41.6867 31.16 41.5558 31.0935C41.425 31.027 41.2802 30.9924 41.1334 30.9926H29.8558C29.7098 30.9941 29.5661 31.0301 29.4365 31.0975C29.3069 31.1649 29.195 31.2619 29.1098 31.3805C29.0246 31.4992 28.9686 31.6363 28.9463 31.7807C28.9239 31.925 28.9359 32.0726 28.9812 32.2115L31.9541 41.4118C32.1885 42.1688 32.6593 42.8307 33.2975 43.3003C33.9357 43.77 34.7077 44.0228 35.5001 44.0215C36.2925 44.0202 37.0636 43.7649 37.7003 43.2931Z" fill="#BBC40F"/>
<path d="M66.2431 36.0116C66.7285 35.3909 67.0009 34.6303 67.0199 33.8426L67.3497 24.7338C67.3545 24.5876 67.3247 24.4422 67.2627 24.3096C67.2007 24.1771 67.1084 24.0609 66.9931 23.9707C66.8779 23.8806 66.7429 23.8188 66.5993 23.7906C66.4557 23.7623 66.3075 23.7683 66.1667 23.8081L55.568 26.783C55.4257 26.8229 55.2949 26.8961 55.1866 26.9966C55.0782 27.097 54.9953 27.2218 54.9447 27.3607C54.8942 27.4996 54.8775 27.6485 54.8959 27.7951C54.9144 27.9417 54.9675 28.0818 55.0508 28.2039L60.2221 35.7946C60.6549 36.4512 61.2877 36.9509 62.0266 37.2198C62.7656 37.4888 63.5715 37.5127 64.3251 37.288C65.0851 37.0798 65.7576 36.6322 66.2431 36.0116Z" fill="#BBC40F"/>
</svg>
