<svg width="91" height="19" viewBox="0 0 91 19" fill="none" xmlns="http://www.w3.org/2000/svg">
<ellipse cx="62" cy="9.5" rx="6" ry="2.5" stroke="#BBC40F" stroke-width="2"/>
<path d="M56.077 13.3274C55.9686 13.2114 55.9006 13.0635 55.8829 12.9057L55.6568 11.083C55.6532 11.0537 55.6567 11.024 55.6668 10.9963C55.6769 10.9686 55.6934 10.9437 55.7149 10.9235C55.7365 10.9034 55.7625 10.8887 55.7908 10.8805C55.8191 10.8723 55.849 10.8709 55.878 10.8764L58.0578 11.2874C58.0871 11.2929 58.1146 11.3053 58.1381 11.3236C58.1616 11.3419 58.1805 11.3655 58.1931 11.3924C58.2056 11.4194 58.2116 11.449 58.2105 11.4788C58.2094 11.5085 58.2012 11.5376 58.1866 11.5636L57.2818 13.1781C57.2064 13.3175 57.0882 13.429 56.9446 13.4959C56.801 13.5629 56.6396 13.5818 56.4844 13.55C56.3282 13.5215 56.1853 13.4435 56.077 13.3274Z" fill="#BBC40F"/>
<path d="M62.5968 14.7163C62.7251 14.6212 62.8195 14.4875 62.8663 14.3348L63.4672 12.4828C63.4763 12.4547 63.4786 12.4248 63.4739 12.3955C63.4693 12.3663 63.4578 12.3386 63.4403 12.3147C63.4229 12.2908 63.4001 12.2714 63.3737 12.258C63.3474 12.2446 63.3182 12.2376 63.2886 12.2376H61.0161C60.9867 12.238 60.9577 12.2452 60.9316 12.2588C60.9055 12.2724 60.8829 12.2919 60.8658 12.3158C60.8486 12.3397 60.8373 12.3674 60.8328 12.3964C60.8283 12.4255 60.8307 12.4553 60.8399 12.4833L61.4389 14.3372C61.4862 14.4897 61.581 14.6231 61.7096 14.7177C61.8382 14.8124 61.9938 14.8633 62.1535 14.863C62.3131 14.8628 62.4685 14.8113 62.5968 14.7163Z" fill="#BBC40F"/>
<path d="M68.3483 13.2491C68.4462 13.124 68.5011 12.9707 68.5049 12.812L68.5713 10.9766C68.5723 10.9471 68.5663 10.9178 68.5538 10.8911C68.5413 10.8644 68.5227 10.841 68.4995 10.8228C68.4763 10.8046 68.4491 10.7922 68.4201 10.7865C68.3912 10.7808 68.3613 10.782 68.333 10.79L66.1973 11.3895C66.1686 11.3975 66.1422 11.4123 66.1204 11.4325C66.0986 11.4527 66.0819 11.4779 66.0717 11.5059C66.0615 11.5339 66.0581 11.5639 66.0618 11.5934C66.0655 11.623 66.0762 11.6512 66.093 11.6758L67.1351 13.2054C67.2223 13.3377 67.3498 13.4384 67.4987 13.4925C67.6476 13.5467 67.81 13.5516 67.9619 13.5063C68.115 13.4643 68.2505 13.3741 68.3483 13.2491Z" fill="#BBC40F"/>
<path d="M0.219971 2.34C0.219971 1.76667 0.639971 1.48 1.47997 1.48C1.83997 1.48 2.52664 1.49333 3.53997 1.52C4.65997 1.57333 5.50664 1.6 6.07997 1.6C6.54664 1.6 7.1133 1.57333 7.77997 1.52C8.2333 1.49333 8.51997 1.48 8.63997 1.48C9.3733 1.50667 9.9933 1.64 10.5 1.88C10.6466 1.94667 10.7666 2.02667 10.86 2.12C10.9533 2.21333 11 2.36667 11 2.58C11 2.87333 10.9066 3.12667 10.72 3.34C10.5333 3.54 10.3066 3.64 10.04 3.64C9.74664 3.64 9.31997 3.6 8.75997 3.52C8.26664 3.42667 7.8333 3.38 7.45997 3.38C7.09997 3.38 6.82664 3.38667 6.63997 3.4C6.59997 3.84 6.57997 4.89333 6.57997 6.56C6.57997 8.54667 6.63997 10.56 6.75997 12.6L6.79997 13.18C6.79997 13.7267 6.48664 14 5.85997 14C5.36664 14 5.0333 13.8867 4.85997 13.66C4.68664 13.42 4.59997 13.06 4.59997 12.58C4.59997 11.6333 4.5733 10.4533 4.51997 9.04C4.46664 7.86667 4.43997 7.03333 4.43997 6.54C4.43997 6.20667 4.47997 5.18667 4.55997 3.48L2.21997 3.5C1.4733 3.5 0.953304 3.43333 0.659971 3.3C0.366637 3.15333 0.219971 2.83333 0.219971 2.34Z" fill="black"/>
<path d="M13.7856 13.2C13.7856 13.4267 13.6989 13.6267 13.5256 13.8C13.3523 13.9733 13.1389 14.06 12.8856 14.06C12.4856 14.06 12.1923 13.9867 12.0056 13.84C11.8189 13.68 11.7256 13.3933 11.7256 12.98C11.7256 12.4867 11.7123 11.84 11.6856 11.04C11.6589 10.3733 11.6456 9.81333 11.6456 9.36C11.6456 9.14667 11.6589 8.86667 11.6856 8.52C11.7123 8.2 11.7256 7.96 11.7256 7.8C11.6856 7.54667 11.5856 7.34 11.4256 7.18C11.2656 7.00667 11.0589 6.92 10.8056 6.92C10.6856 6.92 10.5856 6.86667 10.5056 6.76C10.4256 6.64 10.3856 6.52 10.3856 6.4C10.3856 6.09333 10.5056 5.86 10.7456 5.7C10.9989 5.54 11.2989 5.46 11.6456 5.46C12.3656 5.46 12.8656 5.88667 13.1456 6.74C13.4923 6.34 13.8856 6.02 14.3256 5.78C14.7789 5.52667 15.2123 5.4 15.6256 5.4C16.1189 5.4 16.5656 5.53333 16.9656 5.8C17.3789 6.06667 17.5856 6.42667 17.5856 6.88C17.5856 7.13333 17.4723 7.39333 17.2456 7.66C17.0323 7.92667 16.8123 8.06 16.5856 8.06C16.4656 8.06 16.3589 8.03333 16.2656 7.98C16.1856 7.91333 16.0856 7.82 15.9656 7.7C15.8323 7.56667 15.7189 7.47333 15.6256 7.42C15.5323 7.35333 15.4256 7.32 15.3056 7.32C15.0923 7.32 14.8923 7.35333 14.7056 7.42C14.5189 7.48667 14.3923 7.56667 14.3256 7.66C14.1123 7.99333 13.9523 8.29333 13.8456 8.56C13.7523 8.82667 13.7056 9.11333 13.7056 9.42C13.7056 9.64667 13.6989 9.82667 13.6856 9.96L13.6656 11.1C13.6656 11.2733 13.6723 11.4667 13.6856 11.68C13.6989 11.8933 13.7123 12.0533 13.7256 12.16C13.7656 12.52 13.7856 12.8667 13.7856 13.2Z" fill="black"/>
<path d="M27.8748 13.04C27.8748 13.3333 27.7148 13.58 27.3948 13.78C27.0881 13.98 26.8015 14.08 26.5348 14.08C26.0281 14.08 25.6215 14.02 25.3148 13.9C25.0215 13.7667 24.7481 13.5267 24.4948 13.18C24.1481 13.4867 23.6748 13.72 23.0748 13.88C22.4748 14.0267 21.9215 14.1 21.4148 14.1C20.5881 14.1 19.9081 13.88 19.3748 13.44C18.8415 12.9867 18.5748 12.3267 18.5748 11.46C18.5748 11.0867 18.6748 10.7467 18.8748 10.44C19.0748 10.12 19.3481 9.84 19.6948 9.6C20.0815 9.34667 20.5215 9.15333 21.0148 9.02C21.5081 8.87333 22.0215 8.8 22.5548 8.8C22.8348 8.8 23.1681 8.85333 23.5548 8.96C23.9415 9.06667 24.2415 9.18 24.4548 9.3V8.98C24.4548 8.26 24.2815 7.76667 23.9348 7.5C23.5881 7.22 23.0281 7.08 22.2548 7.08C22.0281 7.08 21.8015 7.12667 21.5748 7.22C21.3615 7.31333 21.1148 7.44 20.8348 7.6C20.4615 7.8 20.1081 7.9 19.7748 7.9C19.6548 7.9 19.5415 7.82 19.4348 7.66C19.3281 7.48667 19.2748 7.33333 19.2748 7.2C19.2748 6.81333 19.4548 6.48 19.8148 6.2C20.1881 5.92 20.6281 5.71333 21.1348 5.58C21.6415 5.43333 22.0948 5.36 22.4948 5.36C22.8948 5.36 23.3548 5.44 23.8748 5.6C24.3948 5.74667 24.8215 5.95333 25.1548 6.22C25.5548 6.56667 25.8615 6.97333 26.0748 7.44C26.3015 7.89333 26.4148 8.39333 26.4148 8.94C26.4148 9.11333 26.4015 9.37333 26.3748 9.72C26.3481 10.0933 26.3348 10.4133 26.3348 10.68C26.3348 10.8 26.3215 10.98 26.2948 11.22C26.2681 11.5133 26.2548 11.7467 26.2548 11.92C26.2548 12.08 26.3148 12.22 26.4348 12.34C26.5548 12.4467 26.6948 12.5 26.8548 12.5L27.4148 12.48C27.5615 12.48 27.6748 12.5333 27.7548 12.64C27.8348 12.7467 27.8748 12.88 27.8748 13.04ZM21.4348 12.52C22.0081 12.52 22.4881 12.46 22.8748 12.34C23.2615 12.22 23.7281 12 24.2748 11.68C24.3281 11.4533 24.3615 11.1533 24.3748 10.78C23.6415 10.4333 23.0348 10.26 22.5548 10.26C22.0081 10.26 21.5215 10.36 21.0948 10.56C20.6681 10.76 20.4548 11.1133 20.4548 11.62C20.4548 11.8733 20.5615 12.0867 20.7748 12.26C20.9881 12.4333 21.2081 12.52 21.4348 12.52Z" fill="black"/>
<path d="M29.1845 7.12C28.8512 6.84 28.6845 6.51333 28.6845 6.14C28.6845 5.95333 28.7778 5.78667 28.9645 5.64C29.1512 5.48 29.3778 5.4 29.6445 5.4C30.1245 5.4 30.5178 5.52667 30.8245 5.78C31.1312 6.03333 31.3978 6.4 31.6245 6.88C31.9045 6.36 32.2578 5.98 32.6845 5.74C33.1245 5.48667 33.6778 5.36 34.3445 5.36C34.7445 5.36 35.0645 5.41333 35.3045 5.52C35.5578 5.61333 35.7645 5.75333 35.9245 5.94C36.0845 6.11333 36.2845 6.38 36.5245 6.74C36.8712 6.31333 37.3045 5.98 37.8245 5.74C38.3578 5.5 38.9045 5.38 39.4645 5.38C40.1178 5.38 40.7112 5.65333 41.2445 6.2C41.7912 6.74667 42.1578 7.36667 42.3445 8.06C42.4112 8.35333 42.4578 9.04667 42.4845 10.14L42.5645 11.3C42.6312 12.0067 42.8578 12.4267 43.2445 12.56C43.4312 12.6133 43.5845 12.68 43.7045 12.76C43.8378 12.8267 43.9045 12.9 43.9045 12.98C43.9312 13.3 43.8578 13.5333 43.6845 13.68C43.5645 13.76 43.3978 13.8467 43.1845 13.94C42.9712 14.0333 42.8045 14.08 42.6845 14.08C41.9645 14.08 41.4512 13.82 41.1445 13.3C40.9445 12.9533 40.8178 12.56 40.7645 12.12C40.7112 11.6667 40.6845 11.0533 40.6845 10.28C40.6845 9.45333 40.5845 8.74667 40.3845 8.16C40.1845 7.56 39.7312 7.26 39.0245 7.26C38.7712 7.26 38.5178 7.34 38.2645 7.5C38.0245 7.64667 37.8512 7.83333 37.7445 8.06C37.5578 8.42 37.4312 8.81333 37.3645 9.24C37.2978 9.65333 37.2645 10.1333 37.2645 10.68C37.2645 11.0267 37.2845 11.38 37.3245 11.74C37.3245 11.8467 37.3312 12.02 37.3445 12.26C37.3712 12.4867 37.3845 12.6933 37.3845 12.88C37.3845 13.2133 37.3178 13.5 37.1845 13.74C37.0645 13.9667 36.8512 14.08 36.5445 14.08C35.8112 14.08 35.4245 13.6933 35.3845 12.92C35.3845 12.3733 35.3912 12.08 35.4045 12.04V11.18C35.4045 10.7 35.3845 10.2333 35.3445 9.78C35.3045 9.32667 35.2578 8.98667 35.2045 8.76C35.0845 8.32 34.9245 7.98 34.7245 7.74C34.5245 7.5 34.2178 7.38 33.8045 7.38C33.5245 7.38 33.2645 7.44667 33.0245 7.58C32.7845 7.71333 32.5778 7.9 32.4045 8.14C32.1512 8.54 31.9845 9.02667 31.9045 9.6C31.8245 10.3333 31.7645 10.9133 31.7245 11.34C31.6978 11.7533 31.6845 12.2333 31.6845 12.78C31.6845 13.1667 31.6178 13.48 31.4845 13.72C31.3645 13.96 31.1312 14.08 30.7845 14.08C30.5312 14.08 30.2645 14.0133 29.9845 13.88C29.7178 13.7333 29.5845 13.54 29.5845 13.3C29.5845 13.0467 29.6112 12.7933 29.6645 12.54C29.7845 11.78 29.8445 10.4867 29.8445 8.66C29.8445 8.36667 29.7778 8.08 29.6445 7.8C29.5245 7.50667 29.3712 7.28 29.1845 7.12Z" fill="black"/>
<path d="M45.7583 7.04C45.6383 7.04 45.5249 7.05333 45.4183 7.08C45.3116 7.09333 45.2049 7.1 45.0983 7.1C44.9516 7.1 44.8116 7.03333 44.6783 6.9C44.5583 6.76667 44.4983 6.64667 44.4983 6.54C44.4983 6.19333 44.6716 5.92667 45.0183 5.74C45.3649 5.54 45.7183 5.44 46.0783 5.44C46.3849 5.44 46.6983 5.54667 47.0183 5.76C47.3516 5.96 47.5983 6.22 47.7583 6.54C48.1049 6.12667 48.5316 5.82667 49.0383 5.64C49.5449 5.45333 50.0716 5.36 50.6183 5.36C51.2316 5.36 51.7983 5.55333 52.3183 5.94C52.8516 6.32667 53.2716 6.82 53.5783 7.42C53.8849 8.00667 54.0383 8.59333 54.0383 9.18C54.0383 9.75333 53.9783 10.2667 53.8583 10.72C53.7383 11.16 53.5249 11.6067 53.2183 12.06C52.8716 12.54 52.4049 12.9333 51.8183 13.24C51.2449 13.5467 50.5583 13.7 49.7583 13.7C49.5449 13.7 49.2849 13.6467 48.9783 13.54C48.6716 13.42 48.4183 13.2933 48.2183 13.16C48.1249 14.0667 48.0783 14.8533 48.0783 15.52C48.0783 15.92 48.0983 16.3 48.1383 16.66C48.1649 17.0867 48.1783 17.3933 48.1783 17.58C48.1783 17.8733 48.0783 18.0867 47.8783 18.22C47.6783 18.3667 47.4583 18.44 47.2183 18.44C46.7383 18.44 46.4183 18.3067 46.2583 18.04C46.1116 17.7867 46.0383 17.42 46.0383 16.94C46.0916 15.7933 46.1582 14.7333 46.2383 13.76C46.3183 12.56 46.3583 10.7067 46.3583 8.2C46.3583 7.96 46.3116 7.70667 46.2183 7.44C46.1249 7.17333 45.9716 7.04 45.7583 7.04ZM48.2983 11.18C48.3649 11.4333 48.5516 11.6467 48.8583 11.82C49.1783 11.98 49.4649 12.06 49.7183 12.06C50.4783 12.06 51.0449 11.8533 51.4183 11.44C51.6982 11.1467 51.8783 10.86 51.9583 10.58C52.0516 10.3 52.0983 9.85333 52.0983 9.24C52.0983 8.76 52.0049 8.36 51.8183 8.04C51.6316 7.70667 51.4049 7.46667 51.1383 7.32C50.8716 7.16 50.6183 7.08 50.3783 7.08C49.8316 7.08 49.3849 7.24667 49.0383 7.58C48.7049 7.9 48.4916 8.34 48.3983 8.9C48.3316 9.34 48.2983 10.1 48.2983 11.18Z" fill="black"/>
<path d="M72.3 10.9C72.3 11.4067 72.3733 11.8 72.52 12.08C72.68 12.3467 72.88 12.48 73.12 12.48C73.2533 12.48 73.38 12.4733 73.5 12.46C73.62 12.4333 73.74 12.42 73.86 12.42C73.9933 12.42 74.1066 12.4867 74.2 12.62C74.3066 12.7533 74.36 12.9 74.36 13.06C74.36 13.38 74.2066 13.6333 73.9 13.82C73.6066 13.9933 73.2066 14.08 72.7 14.08C72.34 14.08 71.9733 13.9733 71.6 13.76C71.24 13.5333 70.94 13.1867 70.7 12.72C70.46 12.24 70.34 11.6467 70.34 10.94C70.34 9.42 70.3666 8.13333 70.42 7.08C70.4866 5.82667 70.52 4.24667 70.52 2.34C70.52 1.74 70.5533 1.32 70.62 1.08C70.7 0.893333 70.8266 0.753333 71 0.659999C71.1866 0.553333 71.38 0.5 71.58 0.5C71.78 0.5 71.9533 0.533333 72.1 0.6C72.26 0.666667 72.3666 0.773333 72.42 0.919999C72.4733 1.08 72.5066 1.24 72.52 1.4C72.5466 1.54667 72.56 1.76 72.56 2.04C72.56 2.58667 72.54 3.11333 72.5 3.62C72.4733 4.23333 72.46 4.68 72.46 4.96C72.3533 7.30667 72.3 9.28667 72.3 10.9Z" fill="black"/>
<path d="M76.744 1.16C77.2107 1.2 77.6174 1.32667 77.964 1.54C78.3107 1.74 78.484 2.04667 78.484 2.46C78.484 2.76667 78.3374 3.01333 78.044 3.2C77.764 3.37333 77.424 3.46 77.024 3.46C76.6374 3.46 76.3707 3.36 76.224 3.16C76.0774 2.96 76.004 2.75333 76.004 2.54C76.004 2.14 76.044 1.80667 76.124 1.54C76.2174 1.27333 76.424 1.14667 76.744 1.16ZM78.344 10.6C78.344 11.12 78.3574 11.6133 78.384 12.08C78.424 12.5333 78.4707 12.9933 78.524 13.46C78.5107 13.5933 78.4107 13.7333 78.224 13.88C78.0374 14.0133 77.8707 14.08 77.724 14.08C77.4707 14.08 77.2107 14.0333 76.944 13.94C76.6907 13.8333 76.5374 13.7067 76.484 13.56C76.404 13.1333 76.364 12.7533 76.364 12.42C76.364 11.3267 76.3307 10.1 76.264 8.74C76.2107 7.54 76.184 6.7 76.184 6.22C76.184 5.98 76.304 5.77333 76.544 5.6C76.784 5.42667 77.0374 5.34 77.304 5.34C77.6907 5.34 77.9574 5.42667 78.104 5.6C78.264 5.77333 78.344 6.04667 78.344 6.42V10.6Z" fill="black"/>
<path d="M80.6812 6.96C80.5746 6.88 80.4879 6.8 80.4212 6.72C80.3546 6.62667 80.3212 6.46667 80.3212 6.24C80.3212 5.98667 80.4079 5.79333 80.5812 5.66C80.7679 5.51333 80.9812 5.44 81.2212 5.44C81.6879 5.44 82.0879 5.56 82.4212 5.8C82.7679 6.04 83.0212 6.37333 83.1812 6.8C83.4746 6.25333 83.8479 5.88 84.3012 5.68C84.7546 5.46667 85.3812 5.36 86.1812 5.36C86.5012 5.36 86.8279 5.46 87.1612 5.66C87.5079 5.84667 87.8212 6.08 88.1012 6.36C88.3279 6.65333 88.5212 7.02 88.6812 7.46C88.8412 7.88667 88.9212 8.27333 88.9212 8.62C88.9212 8.82 88.9079 9.14667 88.8812 9.6C88.8546 10.08 88.8412 10.46 88.8412 10.74C88.8412 11.6733 89.0212 12.2467 89.3812 12.46C89.4346 12.4867 89.5346 12.52 89.6812 12.56C89.8279 12.6 89.9346 12.64 90.0012 12.68C90.0812 12.72 90.1212 12.78 90.1212 12.86C90.1346 13.18 90.0146 13.4467 89.7612 13.66C89.5212 13.86 89.2279 13.96 88.8812 13.96C88.3612 13.96 87.9546 13.82 87.6612 13.54C87.3679 13.26 87.1612 12.8333 87.0412 12.26C86.9746 12.0467 86.9412 11.7333 86.9412 11.32C86.9412 11.0933 86.9546 10.7267 86.9812 10.22C87.0212 9.82 87.0412 9.39333 87.0412 8.94C87.0412 8.47333 86.9079 8.06667 86.6412 7.72C86.3745 7.36 86.0079 7.18 85.5412 7.18C85.2612 7.18 84.9679 7.26667 84.6612 7.44C84.3546 7.6 84.1412 7.8 84.0212 8.04C83.8212 8.45333 83.6879 8.87333 83.6212 9.3C83.4612 10.1267 83.3812 10.92 83.3812 11.68C83.3812 11.8667 83.3946 12.2267 83.4212 12.76C83.4212 12.8 83.4212 12.9 83.4212 13.06C83.4212 13.2067 83.4012 13.3467 83.3612 13.48C83.3346 13.6133 83.2812 13.7333 83.2012 13.84C83.1479 13.8933 83.0479 13.9467 82.9012 14C82.7546 14.0533 82.6279 14.08 82.5212 14.08C82.3345 14.08 82.1012 14 81.8212 13.84C81.5412 13.68 81.3745 13.5 81.3212 13.3L81.3012 13.02C81.3012 12.9133 81.3146 12.7533 81.3412 12.54C81.5012 11.6067 81.5812 10.7933 81.5812 10.1C81.5812 9.79333 81.5746 9.56 81.5612 9.4L81.5412 8.48C81.5412 8.2 81.4612 7.93333 81.3012 7.68C81.1412 7.41333 80.9346 7.17333 80.6812 6.96Z" fill="black"/>
</svg>
